{"title":"UFC.Tonight.2014.06.11.HDTV.x264-FiNCH","uid":10345591,"size":393853275,"categoryP":"video","categoryS":"tv_shows","magnet":"?xt=urn:btih:0919347b0e821c56b021854592c10daaf4d48763&amp;dn=UFC.Tonight.2014.06.11.HDTV.x264-FiNCH&amp;tr=udp%3A%2F%2Ftracker.openbittorrent.com%3A80&amp;tr=udp%3A%2F%2Fopen.demonii.com%3A1337&amp;tr=udp%3A%2F%2Ftracker.coppersurfer.tk%3A6969&amp;tr=udp%3A%2F%2Fexodus.desync.com%3A6969","seeders":1,"leechers":0,"uploader":"FiNCH","files":-1,"time":1402600615,"description":"*******************************************************************************\n                   UFC.Tonight.2014.06.11.HDTV.x264-FiNCH\n*******************************************************************************\n\n-------------------------------------------------------------------------------\nGeneral Information\n-------------------------------------------------------------------------------\n\nFormat : MPEG-4\nFormat profile : Base Media\nCodec ID : isom\nFile size : 376 MiB\nDuration : 42mn 5s\nOverall bit rate : 1 248 Kbps\nEncoded date : UTC 2014-06-12 06:47:39\nTagged date : UTC 2014-06-12 17:08:55\nWriting application : mp4creator 1.6.1d\n\nVideo\nID : 1\nFormat : AVC\nFormat/Info : Advanced Video Codec\nFormat profile : &lt;a class=&quot;__cf_email__&quot; href=&quot;/cdn-cgi/l/email-protection&quot; data-cfemail=&quot;470f2e202f070b746976&quot;&gt;[email&amp;#160;protected]&lt;/a&gt;&lt;script cf-hash='f9e31' type=&quot;text/javascript&quot;&gt;\n/* &lt;![CDATA[ */!function(){try{var t=&quot;currentScript&quot;in document?document.currentScript:function(){for(var t=document.getElementsByTagName(&quot;script&quot;),e=t.length;e--;)if(t[e].getAttribute(&quot;cf-hash&quot;))return t[e]}();if(t&amp;&amp;t.previousSibling){var e,r,n,i,c=t.previousSibling,a=c.getAttribute(&quot;data-cfemail&quot;);if(a){for(e=&quot;&quot;,r=parseInt(a.substr(0,2),16),n=2;a.length-n;n+=2)i=parseInt(a.substr(n,2),16)^r,e+=String.fromCharCode(i);e=document.createTextNode(e),c.parentNode.replaceChild(e,c)}}}catch(u){}}();/* ]]&gt; */&lt;/script&gt;\nFormat settings, CABAC : Yes\nFormat settings, ReFrames : 5 frames\nCodec ID : avc1\nCodec ID/Info : Advanced Video Coding\nDuration : 42mn 5s\nBit rate : 857 Kbps\nMaximum bit rate : 3 156 Kbps\nWidth : 720 pixels\nHeight : 404 pixels\nDisplay aspect ratio : 16:9\nFrame rate mode : Constant\nFrame rate : 29.970 fps\nColor space : YUV\nChroma subsampling : 4:2:0\nBit depth : 8 bits\nScan type : MBAFF\nBits/(Pixel*Frame) : 0.098\nStream size : 258 MiB (69%)\n\nAudio\nID : 3\nFormat : AC-3\nFormat/Info : Audio Coding 3\nMode extension : CM (complete main)\nFormat settings, Endianness : Big\nCodec ID : ac-3\nDuration : 41mn 39s\nSource duration : 42mn 5s\nBit rate mode : Constant\nBit rate : 384 Kbps\nChannel(s) : 2 channels\nChannel positions : Front: L R\nSampling rate : 48.0 KHz\nBit depth : 16 bits\nCompression mode : Lossy\nStream size : 114 MiB (30%)\nSource stream size : 116 MiB (31%)\nLanguage : English\nEncoded date : UTC 2014-06-12 17:08:33\nTagged date : UTC 2014-06-12 17:08:55\n\n-------------------------------------------------------------------------------\n-------------------------------------------------------------------------------\n\nNOTES - Audio is untouched, every decoder I seem to use creates problems so I just left it alone. Slightly larger file size but should be fine. Thoughts?","torrent":{"xt":"urn:btih:0919347b0e821c56b021854592c10daaf4d48763","amp;dn":"UFC.Tonight.2014.06.11.HDTV.x264-FiNCH","amp;tr":["udp%3A%2F%2Ftracker.openbittorrent.com%3A80","udp%3A%2F%2Fopen.demonii.com%3A1337","udp%3A%2F%2Ftracker.coppersurfer.tk%3A6969","udp%3A%2F%2Fexodus.desync.com%3A6969"],"infoHash":"0919347b0e821c56b021854592c10daaf4d48763","infoHashBuffer":{"type":"Buffer","data":[9,25,52,123,14,130,28,86,176,33,133,69,146,193,13,170,244,212,135,99]},"announce":[],"urlList":[]}}